<?xml version="1.0" standalone="no"?>
<!DOCTYPE svg PUBLIC "-//W3C//DTD SVG 20010904//EN"
 "http://www.w3.org/TR/2001/REC-SVG-20010904/DTD/svg10.dtd">
<svg version="1.0" xmlns="http://www.w3.org/2000/svg"
 width="1052.000000pt" height="1052.000000pt" viewBox="0 0 1052.000000 1052.000000"
 preserveAspectRatio="xMidYMid meet">
<metadata>
Created by potrace 1.11, written by Peter Selinger 2001-2013
</metadata>
<g transform="translate(0.000000,1052.000000) scale(0.100000,-0.100000)"
fill="#000000" stroke="none">
<path d="M5307 10514 c-1 -1 -69 -5 -152 -8 -82 -4 -159 -9 -170 -11 -11 -3
-51 -7 -90 -9 -155 -11 -327 -39 -565 -91 -170 -37 -439 -148 -590 -244 -154
-96 -326 -258 -402 -376 -180 -280 -162 -594 44 -765 89 -75 182 -116 289
-127 l46 -4 7 58 c7 63 6 60 26 148 8 33 14 62 15 65 0 3 11 39 24 80 69 219
218 455 385 610 58 54 188 152 236 178 19 10 57 31 83 46 27 15 51 26 53 23 2
-2 -24 -26 -58 -53 -94 -74 -286 -269 -352 -357 -100 -135 -189 -326 -211
-457 -19 -107 -23 -144 -24 -240 l-2 -105 31 -18 c30 -18 70 -32 120 -44 30
-7 178 -9 184 -2 2 2 7 30 11 62 26 236 190 552 390 753 100 101 146 130 86
54 -191 -242 -310 -561 -307 -821 l1 -82 65 -32 c36 -18 84 -35 107 -38 48 -6
42 -15 68 107 29 135 81 256 161 376 38 58 136 170 148 170 2 0 -16 -30 -40
-66 -49 -76 -95 -194 -119 -310 -19 -88 -30 -302 -18 -321 5 -7 27 -15 48 -17
22 -3 49 -8 60 -10 25 -5 135 -17 195 -22 84 -6 495 -6 575 1 483 38 854 155
1222 387 176 110 285 198 458 369 193 191 258 244 347 286 79 38 139 52 219
54 l62 2 -24 18 c-13 10 -35 24 -49 31 -14 7 -32 17 -40 24 -40 31 -280 164
-452 250 -252 126 -684 290 -868 329 -8 2 -43 11 -77 20 -35 9 -71 18 -80 20
-10 1 -63 12 -118 24 -146 30 -253 46 -370 56 -38 4 -76 8 -83 10 -24 8 -497
25 -505 19z"/>
<path d="M3044 9406 c-214 -104 -423 -310 -572 -563 -50 -84 -69 -119 -77
-143 -1 -3 -11 -27 -23 -53 -52 -117 -112 -332 -129 -462 -9 -79 -9 -344 0
-420 12 -89 45 -250 68 -329 24 -79 23 -80 -55 -91 -28 -4 -58 -8 -66 -10 -8
-1 -33 -6 -55 -9 -105 -16 -146 -28 -155 -46 -9 -17 -6 -68 5 -110 3 -8 7 -35
10 -59 3 -24 8 -49 12 -55 3 -6 -9 6 -27 27 -45 53 -106 92 -180 115 -55 18
-84 20 -190 17 -105 -3 -163 -12 -355 -55 -126 -28 -237 -52 -245 -55 -8 -2
-49 -11 -90 -20 -103 -22 -127 -33 -134 -58 -3 -12 6 -69 20 -127 30 -124 136
-566 235 -980 39 -162 76 -311 82 -330 16 -43 39 -48 128 -25 35 10 75 19 89
22 14 2 54 11 90 19 36 9 76 18 90 20 14 3 53 11 88 19 34 8 77 17 95 20 179
32 298 73 372 129 53 41 56 44 93 95 18 24 33 41 33 38 1 -4 2 -10 3 -14 1 -5
6 -32 10 -61 12 -78 28 -86 142 -66 49 8 100 17 113 19 13 2 45 7 70 11 25 4
55 8 65 10 11 2 55 8 98 14 106 15 122 17 203 29 39 5 93 13 120 16 28 3 61 8
75 10 14 2 58 7 99 11 41 3 84 8 95 10 20 4 46 7 171 19 104 10 120 19 143 78
12 29 26 71 33 94 19 68 36 74 254 89 50 3 106 7 125 9 82 9 137 7 158 -4 12
-6 40 -47 61 -89 22 -43 47 -84 56 -92 10 -8 38 -14 68 -14 65 1 556 19 594
23 22 2 27 46 24 229 -2 130 1 188 10 198 14 18 95 18 127 1 12 -7 48 -51 80
-97 130 -193 213 -306 232 -317 13 -9 84 -15 212 -18 208 -6 325 -10 543 -22
312 -16 427 0 579 79 94 50 215 163 265 249 l32 54 -6 -80 c-3 -44 -8 -91 -10
-105 -2 -14 -6 -61 -10 -104 -4 -43 -8 -87 -10 -97 -5 -25 26 -61 56 -64 13
-1 56 -6 94 -9 39 -4 81 -9 95 -11 14 -2 52 -6 85 -10 33 -4 75 -8 93 -11 17
-2 49 -6 69 -9 21 -2 73 -10 118 -16 44 -6 91 -12 105 -14 41 -4 185 -25 211
-30 23 -5 71 -12 142 -21 17 -2 79 -13 137 -24 58 -10 121 -22 140 -25 42 -6
237 -43 300 -55 303 -62 561 17 741 225 80 91 140 213 181 363 29 105 31 328
4 417 -72 235 -240 404 -484 484 -34 11 -147 36 -250 56 -235 45 -223 43 -337
61 -16 2 -43 7 -60 11 -16 3 -48 8 -70 9 -22 2 -76 11 -120 19 -44 9 -96 18
-115 20 -46 6 -181 26 -200 30 -8 2 -27 4 -42 4 l-27 1 20 70 c10 38 25 111
33 162 8 51 18 111 21 133 10 63 13 362 4 445 -26 243 -82 448 -181 664 -48
103 -137 258 -190 331 -15 20 -131 170 -138 178 -3 4 -36 -30 -72 -75 -140
-177 -337 -323 -601 -448 l-88 -41 58 -38 c360 -236 649 -708 732 -1196 23
-139 23 -136 -2 -131 -12 3 -47 8 -77 10 -150 15 -186 19 -191 22 -18 11 -49
-34 -54 -78 -7 -68 -13 -124 -20 -198 -4 -36 -8 -78 -10 -95 -2 -16 -4 -39 -5
-50 -1 -18 -3 -17 -12 5 -48 107 -66 141 -98 185 -91 122 -226 214 -381 258
-50 14 -79 20 -179 32 -58 7 -338 21 -539 26 -137 4 -141 1 -142 -105 -2 -129
-4 -196 -6 -196 -2 0 -14 22 -27 49 -64 126 -229 235 -386 256 -54 8 -330 8
-600 0 -74 -2 -149 -4 -167 -4 -17 -1 -39 -9 -48 -18 -18 -17 -18 -85 0 -488
2 -49 7 -162 10 -250 3 -88 8 -205 10 -259 5 -116 4 -116 -70 49 -86 192 -443
901 -461 916 -19 15 -55 16 -217 5 -157 -11 -169 -13 -193 -38 -26 -28 -208
-581 -347 -1058 l-33 -115 -40 -6 c-37 -6 -123 -17 -189 -24 -16 -2 -48 -6
-70 -9 -45 -7 -245 -34 -315 -43 -59 -7 -71 7 -78 92 -5 74 -3 76 98 91 30 4
57 8 60 9 13 3 128 18 150 20 29 2 125 15 149 20 9 1 46 6 82 10 36 4 72 10
78 15 17 10 21 61 10 135 -4 33 -11 89 -15 125 -8 84 -8 82 -19 101 -17 26
-35 27 -180 8 -77 -10 -165 -21 -195 -25 -30 -3 -64 -8 -75 -10 -11 -2 -57 -9
-103 -16 -77 -10 -85 -10 -102 8 -12 12 -21 41 -26 80 -6 58 -5 63 17 77 13 8
49 18 80 21 31 4 65 8 75 10 19 3 91 14 152 22 17 2 47 6 65 8 17 3 59 8 92
11 33 4 67 8 75 10 8 2 47 7 85 10 103 9 114 28 90 165 -2 14 -7 61 -11 105
-3 44 -13 91 -21 104 -14 22 -18 23 -94 17 -43 -4 -87 -9 -96 -10 -10 -2 -45
-7 -78 -10 -33 -4 -87 -11 -120 -15 -33 -5 -62 -7 -65 -4 -3 2 -5 88 -6 191
-3 411 63 654 254 926 61 88 278 311 355 366 l47 34 -32 31 c-118 111 -179
254 -175 411 2 48 -1 74 -9 74 -6 0 -51 -20 -100 -44z m2261 -2230 c67 -28
106 -125 79 -201 -30 -88 -71 -106 -242 -109 -179 -3 -172 -10 -172 165 0 114
2 134 18 145 25 19 271 19 317 0z m1160 -32 c170 -29 263 -142 267 -323 3
-173 -45 -303 -138 -373 -64 -50 -124 -61 -282 -55 -154 5 -154 5 -147 121 3
45 7 131 10 191 3 61 7 164 10 230 7 156 12 195 27 212 9 11 33 13 117 8 58
-3 120 -8 136 -11z m1215 -109 c19 -3 53 -7 75 -10 22 -2 56 -7 75 -9 19 -3
53 -8 75 -11 78 -11 301 -45 338 -51 l38 -7 -6 -50 c-4 -27 -8 -57 -10 -66 -1
-9 -6 -36 -10 -61 -4 -25 -9 -54 -11 -65 -2 -10 -6 -35 -9 -55 -3 -20 -7 -45
-9 -55 -6 -33 -16 -98 -20 -130 -4 -30 -12 -78 -21 -125 -3 -14 -7 -41 -10
-60 -10 -66 -17 -90 -23 -86 -4 2 -75 14 -157 26 -83 12 -161 23 -175 25 -14
2 -45 6 -70 10 -25 3 -56 8 -70 10 -14 2 -47 7 -75 10 -134 16 -139 20 -131
92 8 78 22 97 66 95 16 -1 138 -15 153 -18 10 -1 70 -10 135 -19 140 -19 174
-24 228 -34 48 -9 80 1 88 26 5 16 38 209 50 290 9 66 -15 74 -361 119 -18 2
-50 6 -70 9 -21 3 -70 10 -108 15 -86 11 -103 17 -110 39 -5 17 -1 68 11 119
5 25 37 42 69 36 10 -2 35 -6 55 -9z m-3728 -296 c37 -73 67 -139 68 -146 0
-22 -9 -24 -187 -38 -40 -3 -53 0 -57 12 -8 21 86 314 99 310 5 -2 40 -64 77
-138z m4893 106 c195 -37 292 -101 331 -219 45 -135 -7 -363 -106 -466 -81
-84 -188 -103 -367 -66 -57 11 -110 28 -118 37 -14 14 -13 31 15 180 17 90 33
175 35 189 37 209 67 345 77 352 12 8 66 6 133 -7z m-7256 -45 c25 -13 38 -36
41 -70 7 -79 -22 -104 -150 -125 -19 -3 -52 -11 -74 -16 -76 -20 -95 0 -112
116 -8 55 3 62 133 89 113 24 128 24 162 6z m4166 -277 c-4 -137 -8 -249 -9
-250 -3 -3 -161 217 -175 245 -10 19 -8 25 16 48 93 87 124 122 145 161 13 23
24 43 26 43 2 0 0 -111 -3 -247z m-3681 142 c3 -22 10 -67 16 -100 16 -97 15
-100 -19 -76 -16 11 -50 30 -76 41 -43 19 -46 22 -34 39 55 74 89 128 89 140
0 29 18 -4 24 -44z m-311 -423 c32 -34 40 -76 21 -113 -22 -44 -50 -57 -188
-85 -151 -30 -154 -29 -176 68 -15 70 -16 96 -2 110 9 9 143 42 220 54 20 3
39 7 40 9 9 8 62 -19 85 -43z"/>
<path d="M3430 8480 c-13 -8 -15 -60 -16 -367 0 -197 3 -368 8 -380 8 -25 51
-32 65 -10 4 6 8 89 8 183 1 183 5 201 59 246 40 33 130 43 186 20 88 -35 103
-75 105 -282 0 -85 4 -161 9 -168 4 -6 18 -12 31 -12 34 0 39 26 38 201 -1
174 -14 227 -71 280 -57 54 -86 64 -176 64 -80 0 -103 -7 -161 -50 -20 -14
-20 -13 -20 126 0 112 -3 142 -15 149 -19 12 -31 12 -50 0z"/>
<path d="M3116 8415 c-10 -10 -14 -35 -14 -77 0 -110 2 -106 -34 -103 -46 4
-58 -3 -58 -36 0 -28 2 -29 45 -29 40 0 45 -3 46 -22 0 -13 1 -86 2 -163 2
-128 5 -144 27 -183 31 -54 91 -92 148 -92 55 0 72 8 72 34 0 32 -19 46 -60
46 -19 0 -46 7 -58 16 -42 29 -49 60 -50 214 l0 145 65 2 c74 3 83 7 83 33 0
27 -17 34 -85 35 l-60 0 -2 83 c-1 103 -25 138 -67 97z"/>
<path d="M4132 8241 c-87 -35 -146 -117 -158 -222 -20 -169 89 -303 253 -313
123 -8 265 75 194 114 -15 8 -30 4 -68 -15 -111 -57 -232 -25 -283 75 -40 78
-46 75 182 75 228 -1 239 2 232 66 -11 94 -63 176 -137 215 -46 24 -161 27
-215 5z m159 -61 c19 -5 47 -22 62 -37 24 -26 57 -90 57 -111 0 -5 -80 -9
-180 -9 -99 0 -180 3 -180 8 0 25 43 100 68 118 58 41 105 50 173 31z"/>
<path d="M8049 7728 c-1 -7 -3 -31 -4 -53 -2 -22 -8 -60 -14 -85 -5 -24 -9
-46 -7 -47 1 -1 20 -5 42 -8 21 -3 54 -8 72 -11 17 -3 49 -7 70 -10 20 -2 62
-8 92 -14 53 -9 95 -15 170 -26 19 -3 46 -7 60 -9 14 -3 41 -7 60 -10 19 -3
55 -10 80 -15 25 -5 61 -12 80 -14 19 -3 60 -10 90 -16 30 -6 69 -13 85 -16
17 -2 37 -7 45 -9 8 -2 31 -7 50 -10 70 -11 419 -88 575 -126 88 -21 163 -39
166 -39 6 0 54 189 48 194 -4 3 -250 65 -289 72 -14 3 -63 14 -110 25 -154 35
-455 95 -525 105 -16 2 -50 8 -75 14 -37 8 -263 47 -385 66 -16 2 -41 6 -55 9
-14 3 -47 7 -75 11 -27 3 -57 7 -65 9 -22 4 -88 14 -137 20 -31 4 -43 2 -44
-7z"/>
<path d="M2129 7666 c-2 -2 -24 -6 -49 -9 -25 -3 -58 -8 -75 -11 -16 -3 -43
-8 -60 -10 -44 -7 -199 -35 -285 -51 -41 -8 -87 -17 -102 -19 -15 -3 -63 -12
-105 -20 -103 -21 -123 -25 -158 -32 -140 -25 -565 -121 -573 -129 -3 -3 22
-108 39 -161 l10 -31 97 23 c282 69 403 95 712 154 118 22 222 42 230 45 8 2
33 6 55 10 54 7 359 58 362 60 2 1 -5 43 -14 93 l-16 92 -32 0 c-17 0 -34 -2
-36 -4z"/>
<path d="M3900 5853 c-313 -63 -471 -424 -313 -710 37 -66 128 -155 193 -188
155 -78 368 -61 487 39 32 27 36 53 12 82 -17 20 -29 18 -82 -16 -123 -78
-255 -84 -380 -17 -158 84 -234 275 -181 456 28 97 105 188 201 236 106 54
273 43 357 -24 40 -32 70 -33 91 -5 19 27 7 51 -45 84 -101 65 -222 88 -340
63z"/>
<path d="M4466 5835 c-21 -21 -22 -868 -1 -901 16 -25 60 -22 75 5 4 9 9 77 9
151 0 74 0 162 0 195 l1 60 288 0 287 0 2 -155 c1 -85 2 -178 2 -207 1 -47 3
-52 31 -61 23 -9 33 -8 45 4 18 19 16 -28 17 476 1 444 0 448 -47 448 -44 0
-47 -18 -47 -223 l0 -194 -289 0 c-261 -1 -289 1 -290 16 0 9 0 94 0 189 0
119 -3 179 -12 192 -14 24 -50 26 -71 5z"/>
<path d="M5410 5835 c-10 -13 -13 -112 -13 -451 0 -385 2 -437 16 -451 14 -14
53 -16 299 -16 156 0 295 3 309 6 34 9 44 33 24 63 -15 23 -15 23 -257 23
-134 0 -254 0 -268 0 l-25 1 0 163 0 162 195 3 c181 2 196 3 212 22 21 26 12
59 -19 66 -13 4 -106 7 -206 8 l-182 1 0 163 0 162 267 0 c260 0 267 1 282 21
15 22 11 48 -8 61 -6 4 -147 8 -312 8 -260 0 -303 -2 -314 -15z"/>
<path d="M6220 5831 c-6 -13 -10 -174 -10 -454 0 -461 -1 -448 48 -460 40 -10
46 21 47 228 l0 190 203 5 c160 4 205 8 211 19 10 16 6 50 -8 64 -5 5 -97 10
-208 11 l-198 1 0 160 0 160 272 5 c149 3 275 8 278 12 13 12 8 60 -6 69 -8 5
-150 9 -316 9 -289 0 -303 -1 -313 -19z"/>
<path d="M8135 5544 c4 -44 9 -90 10 -104 2 -14 4 -28 4 -31 1 -3 7 -6 14 -6
85 -2 749 -141 962 -202 39 -11 73 -17 77 -13 6 6 58 171 58 183 0 3 -6 6 -12
7 -7 1 -106 26 -220 55 -115 30 -208 53 -208 52 0 -2 -24 3 -52 10 -29 8 -64
16 -78 19 -21 3 -202 38 -275 52 -33 7 -187 33 -230 40 -22 3 -44 8 -48 11 -5
3 -6 -30 -2 -73z"/>
<path d="M2131 5569 c-25 -5 -63 -11 -85 -14 -23 -4 -60 -11 -84 -16 -23 -5
-59 -12 -80 -15 -89 -14 -335 -67 -553 -119 -119 -28 -180 -49 -175 -61 3 -8
17 -52 31 -99 15 -47 30 -83 35 -80 26 16 473 117 735 165 94 17 186 34 205
38 l35 8 0 98 c0 58 -4 100 -10 101 -5 2 -30 -1 -54 -6z"/>
<path d="M8022 5526 c-12 -18 -30 -41 -39 -52 -10 -10 -35 -40 -56 -66 -53
-66 -126 -140 -167 -170 -47 -33 -80 -40 -112 -24 l-27 14 -44 -112 c-25 -62
-57 -137 -72 -168 -30 -63 -90 -138 -110 -138 -21 0 -56 41 -62 73 -8 41 -15
25 -20 -45 -8 -137 -42 -228 -95 -257 -25 -15 -28 -14 -50 14 -13 16 -26 35
-29 44 -3 9 -25 -21 -57 -84 -103 -195 -166 -248 -264 -221 -23 7 -27 5 -33
-24 l-7 -31 -71 2 c-61 2 -134 13 -222 33 -70 16 -179 64 -234 103 -24 17 -24
17 -19 -10 3 -15 2 -29 -2 -32 -4 -2 -40 16 -79 40 -40 25 -75 45 -78 45 -2 0
-1 -10 2 -21 7 -20 4 -21 -21 -15 -16 4 -54 23 -86 42 -65 40 -157 84 -176 84
-10 0 -10 -5 -2 -21 7 -11 9 -23 6 -26 -8 -8 -70 36 -131 91 -56 51 -99 75
-151 83 -32 5 -34 4 -34 -21 0 -14 -2 -26 -5 -26 -2 0 -32 18 -66 40 -34 22
-67 40 -73 41 -6 0 -21 2 -33 5 -23 4 -63 -29 -63 -52 0 -9 -7 -10 -30 -1 -22
9 -38 8 -61 0 -26 -10 -31 -9 -37 5 -21 56 -68 55 -158 -3 -58 -37 -70 -41
-73 -27 -5 24 -22 32 -51 25 -45 -11 -75 -31 -160 -107 -76 -69 -110 -90 -110
-68 0 4 5 13 12 20 22 22 0 24 -44 4 -24 -10 -81 -42 -127 -71 -92 -56 -116
-63 -108 -31 3 11 3 20 1 20 -3 0 -31 -17 -62 -38 -31 -22 -68 -45 -80 -51
-23 -12 -24 -12 -19 23 l5 36 -30 -25 c-77 -65 -302 -142 -425 -146 -85 -2
-87 -2 -102 31 -10 25 -16 28 -27 19 -27 -22 -94 -12 -133 19 -44 35 -97 104
-131 169 -13 26 -33 63 -43 80 l-19 33 -25 -38 c-14 -20 -27 -39 -29 -41 -2
-2 -16 2 -32 8 -54 23 -86 105 -107 276 -8 61 -11 65 -19 22 -7 -36 -38 -77
-59 -77 -17 0 -69 55 -96 100 -26 45 -74 146 -113 238 -28 68 -42 85 -50 62
-6 -20 -61 -17 -102 4 -44 23 -192 167 -266 259 -25 31 -48 56 -51 57 -3 0 -7
-53 -8 -117 -2 -166 -11 -289 -31 -438 -6 -38 -12 -88 -15 -110 -2 -22 -7 -51
-10 -65 -3 -14 -8 -41 -11 -60 -5 -35 -68 -315 -85 -380 -5 -19 -11 -42 -13
-50 -14 -51 -55 -252 -61 -290 -3 -25 -8 -57 -11 -72 -18 -89 -4 -381 19 -404
2 -3 14 22 27 56 12 33 27 60 33 60 12 0 4 -140 -14 -219 -18 -86 2 -216 65
-411 l15 -45 2 53 c1 28 3 57 4 62 1 6 3 18 4 28 3 20 76 -200 91 -275 6 -29
9 -116 7 -200 -4 -164 2 -214 35 -280 39 -77 43 -71 43 60 0 78 5 129 12 142
11 18 12 17 14 -15 0 -19 2 -44 4 -55 14 -87 15 -138 5 -195 -30 -161 -15
-294 47 -418 27 -53 116 -162 134 -162 4 0 -3 12 -18 28 -58 62 -84 153 -58
203 20 38 32 43 60 25 35 -23 48 -76 40 -159 -18 -167 -12 -200 57 -307 37
-59 138 -183 144 -178 2 2 -4 27 -12 56 -9 28 -14 62 -12 76 3 21 15 10 92
-83 94 -115 98 -121 146 -221 19 -41 42 -73 63 -87 44 -30 61 -30 55 2 -3 14
-2 25 3 25 4 0 48 -41 97 -90 93 -93 135 -115 132 -67 -1 12 -2 36 -1 52 2 30
2 30 16 -8 48 -137 240 -315 479 -445 5 -3 7 7 4 22 -5 23 -3 25 11 14 9 -7
21 -17 26 -23 43 -47 195 -145 225 -145 6 0 -2 19 -18 43 -30 44 -72 131 -72
151 0 6 15 -12 34 -39 67 -100 139 -148 296 -200 47 -16 110 -41 140 -58 52
-28 109 -81 110 -102 1 -28 20 25 20 57 0 48 -13 81 -52 132 -27 34 -28 38 -8
21 61 -48 134 -132 156 -178 l23 -50 12 46 c6 26 15 47 18 47 9 0 94 -71 104
-87 4 -6 21 -22 38 -34 l31 -22 -6 48 c-4 26 -29 93 -56 149 -45 93 -68 166
-52 166 4 0 27 -30 52 -68 63 -93 101 -134 200 -210 47 -37 103 -83 125 -104
l40 -37 22 28 c12 15 55 54 95 87 108 87 173 157 226 245 26 44 50 79 54 79
14 0 -5 -66 -49 -170 -44 -105 -65 -190 -46 -190 6 0 43 33 83 72 80 79 72 79
101 3 l11 -30 14 39 c16 44 78 129 121 165 58 49 67 55 42 26 -42 -47 -61 -94
-61 -147 0 -27 2 -52 6 -55 3 -3 24 14 46 40 42 47 105 83 245 137 133 52 228
127 261 207 21 49 35 49 18 1 -20 -59 -43 -108 -66 -140 -12 -18 -15 -28 -7
-28 26 0 121 64 189 127 48 44 70 60 66 46 -8 -26 7 -38 24 -18 7 8 16 15 21
15 9 0 81 48 154 103 59 45 176 165 214 220 18 27 41 72 52 100 10 29 19 43
20 32 3 -48 6 -90 8 -93 6 -12 69 39 117 95 86 99 111 116 102 68 -6 -29 -5
-29 30 -11 41 21 60 47 97 132 35 81 199 309 215 299 9 -6 6 -35 -11 -99 -6
-21 -8 -40 -6 -42 9 -9 131 163 161 226 29 60 31 72 27 150 -9 222 -8 237 18
264 19 20 28 23 42 15 62 -33 54 -131 -19 -228 -23 -31 -24 -33 -4 -20 64 46
125 157 153 282 20 91 18 174 -6 267 -14 51 -16 85 -10 160 4 52 7 101 8 108
0 13 16 17 18 5 0 -5 3 -19 7 -33 3 -14 6 -69 6 -123 0 -96 1 -97 18 -75 51
67 61 150 46 395 -6 99 6 173 56 338 22 73 24 77 31 51 4 -16 9 -38 10 -50 1
-11 3 -30 5 -41 1 -11 15 30 31 90 39 147 47 267 24 370 -18 81 -27 195 -16
195 3 -1 19 -29 35 -63 l28 -62 10 30 c15 50 16 225 2 326 -18 129 -45 248
-110 478 -48 168 -68 246 -90 346 -23 102 -59 301 -68 380 -4 28 -8 61 -11 75
-2 14 -7 63 -10 110 -10 157 -16 234 -18 237 -1 1 -12 -13 -25 -31z m-2947
-1499 c34 -17 68 -9 79 18 5 14 9 15 21 5 12 -10 18 -10 29 -1 12 10 17 8 26
-8 15 -28 49 -26 95 4 l37 26 35 -41 c36 -42 53 -43 56 -3 1 20 2 20 32 2 23
-14 50 -19 112 -19 l83 0 -10 25 c-11 28 -1 32 33 13 29 -16 229 -18 223 -2
-3 7 13 5 42 -6 26 -9 69 -18 95 -19 47 -3 48 -2 37 19 -6 12 -10 23 -8 24 2
1 35 -12 75 -29 l72 -32 -25 -41 c-14 -24 -20 -43 -14 -47 8 -5 55 -10 133
-15 14 0 7 -37 -18 -87 -31 -62 -95 -126 -152 -154 -43 -21 -49 -39 -13 -39
84 0 -41 -106 -168 -142 -37 -10 -114 -22 -172 -25 -58 -3 -106 -7 -108 -8 -1
-1 14 -19 33 -40 26 -27 34 -40 26 -48 -16 -16 -202 -18 -254 -2 -94 28 -156
79 -207 168 l-28 49 -15 -33 c-9 -19 -18 -44 -22 -57 -5 -19 -9 -21 -21 -11
-11 9 -17 9 -29 -1 -12 -10 -16 -8 -25 15 -5 14 -10 30 -10 34 0 4 -6 15 -13
26 -13 16 -16 14 -46 -38 -70 -122 -195 -189 -341 -181 -78 4 -120 8 -120 12
0 3 16 25 36 48 l35 44 -93 1 c-51 0 -104 2 -118 5 -119 20 -186 48 -250 103
l-35 30 33 13 c17 7 32 15 32 18 0 3 -20 16 -44 27 -55 27 -112 76 -141 123
-25 39 -48 109 -37 111 6 1 32 3 97 8 38 3 48 16 33 42 -7 13 -18 31 -25 39
-10 13 0 21 62 51 70 34 73 35 64 12 -8 -22 -6 -23 35 -23 25 0 65 9 90 20 25
10 46 16 46 11 0 -4 46 -7 103 -7 75 2 111 7 134 19 l33 17 -10 -25 c-6 -15
-10 -28 -10 -29 0 -2 34 -2 76 0 75 2 134 18 134 36 0 5 5 6 10 3 6 -3 10 -17
10 -31 0 -35 15 -30 52 20 28 37 35 42 48 31 8 -7 29 -19 45 -28z"/>
</g>
</svg>
